<svg width="10" height="16" viewBox="0 0 10 16" fill="none" xmlns="http://www.w3.org/2000/svg">
    <path d="M0.363279 15.0977C0.130672 14.8801 0 14.5849 0 14.2772C0 13.9694 0.130672 13.6743 0.363279 13.4566L6.50506 7.71174L0.363279 1.96686C0.137264 1.74797 0.0122023 1.4548 0.015029 1.1505C0.0178556 0.846197 0.148345 0.555108 0.378393 0.339927C0.60844 0.124745 0.919641 0.00268936 1.24496 4.48227e-05C1.57029 -0.00259972 1.88371 0.114381 2.11772 0.32579L9.13672 6.89121C9.36933 7.10885 9.5 7.404 9.5 7.71174C9.5 8.01949 9.36933 8.31463 9.13672 8.53228L2.11772 15.0977C1.88504 15.3153 1.56951 15.4375 1.2405 15.4375C0.911492 15.4375 0.595957 15.3153 0.363279 15.0977Z"
          fill="var(--path-clr, currentColor)"/>
</svg>
