<svg width="20" height="18" viewBox="0 0 20 18" fill="none" xmlns="http://www.w3.org/2000/svg">
<path d="M18.9319 6.81538L13.0039 0.545363C12.5099 0.0243635 11.758 -0.140558 11.095 0.125442C10.429 0.390442 9.999 1.02443 10 1.74043V4.50752C3.543 4.70052 0 7.42943 0 12.2404C0 13.8924 0.419885 15.5384 1.18188 16.8754C1.40788 17.2724 1.8099 17.5004 2.2439 17.5004C2.3519 17.5004 2.46397 17.4865 2.57397 17.4565C3.11597 17.3095 3.47597 16.8325 3.46997 16.2685C3.45397 15.0535 3.57905 14.1645 4.24805 13.4865C5.15205 12.5705 7.08598 12.0715 10.001 11.9995V14.7456C9.99998 15.4616 10.4299 16.0965 11.0959 16.3615C11.7589 16.6265 12.5109 16.4614 13.0049 15.9404L18.9331 9.67036C19.6881 8.87036 19.6879 7.61638 18.9319 6.81538ZM17.842 8.64058L11.9141 14.9094C11.8201 15.0084 11.7169 14.9945 11.6499 14.9675C11.5819 14.9405 11.5 14.8796 11.5 14.7456V11.2404C11.5 10.8264 11.164 10.4904 10.75 10.4904C6.893 10.4904 4.48693 11.1076 3.17993 12.4326C2.40193 13.2206 2.10999 14.1555 2.01099 15.1145C1.67799 14.2245 1.5 13.2355 1.5 12.2395C1.5 7.07846 6.53 5.99556 10.75 5.99556C11.164 5.99556 11.5 5.65956 11.5 5.24556V1.73946C11.5 1.60646 11.5809 1.54551 11.6499 1.51851C11.6769 1.50751 11.7111 1.49849 11.7471 1.49849C11.8001 1.49849 11.8581 1.51737 11.9141 1.57637L17.842 7.84639C18.053 8.06839 18.053 8.41758 17.842 8.64058Z" fill="black" fill-opacity="0.8"/>
</svg>
