<svg width="10" height="16" viewBox="0 0 10 16" fill="none" xmlns="http://www.w3.org/2000/svg">
    <path d="M9.13672 0.339803C9.36933 0.557445 9.5 0.852591 9.5 1.16034C9.5 1.46808 9.36933 1.76323 9.13672 1.98087L2.99494 7.72576L9.13672 13.4706C9.36274 13.6895 9.4878 13.9827 9.48497 14.287C9.48214 14.5913 9.35165 14.8824 9.12161 15.0976C8.89156 15.3128 8.58036 15.4348 8.25504 15.4375C7.92971 15.4401 7.61629 15.3231 7.38228 15.1117L0.363279 8.54629C0.130671 8.32865 0 8.0335 0 7.72576C0 7.41801 0.130671 7.12287 0.363279 6.90522L7.38228 0.339803C7.61496 0.122227 7.9305 0 8.2595 0C8.58851 0 8.90404 0.122227 9.13672 0.339803Z"
          fill="var(--path-clr, currentColor)"/>
</svg>
