<svg width="27" height="21" viewBox="0 0 27 21" fill="none" xmlns="http://www.w3.org/2000/svg">
<path d="M26.3192 8.0734C24.4904 5.058 20.3952 0 13.5007 0C6.6062 0 2.511 5.058 0.682222 8.0734C-0.227193 9.5699 -0.227159 11.4287 0.680834 12.9266C2.50961 15.942 6.60481 21 13.4993 21C20.3938 21 24.489 15.942 26.3178 12.9266C27.2272 11.4287 27.2272 9.5699 26.3192 8.0734ZM25.1001 12.2085C25.0987 12.2085 25.0987 12.2085 25.1001 12.2085C23.4262 14.9692 19.6932 19.5987 13.5007 19.5987C7.30815 19.5987 3.57517 14.9678 1.90128 12.2085C1.26327 11.1544 1.26323 9.8456 1.90267 8.79147C3.57513 6.03085 7.30815 1.40128 13.5007 1.40128C19.6932 1.40128 23.4262 6.03225 25.1001 8.79147C25.7381 9.8442 25.7381 11.1544 25.1001 12.2085ZM13.5007 4.89968C10.3661 4.89968 7.81685 7.41112 7.81685 10.4993C7.81685 13.5875 10.3661 16.099 13.5007 16.099C16.6353 16.099 19.1845 13.5875 19.1845 10.4993C19.1845 7.41112 16.6353 4.89968 13.5007 4.89968ZM13.5007 14.699C11.1504 14.699 9.23781 12.8148 9.23781 10.4993C9.23781 8.18387 11.1504 6.29959 13.5007 6.29959C15.851 6.29959 17.7636 8.18387 17.7636 10.4993C17.7636 12.8148 15.851 14.699 13.5007 14.699Z" fill="#404040"/>
</svg>
