<svg width="17" height="20" viewBox="0 0 17 20" fill="none" xmlns="http://www.w3.org/2000/svg">
<path d="M16.854 5.146L11.854 0.145996C11.76 0.0519961 11.633 0 11.5 0H6.8999C5.0299 0 4 1.02999 4 2.89999V4H2.8999C1.0299 4 0 5.02999 0 6.89999V17.1C0 18.97 1.0299 20 2.8999 20H10.0991C11.9691 20 12.999 18.97 12.999 17.1V16H14.0991C15.9691 16 16.999 14.97 16.999 13.1V5.5C17 5.367 16.947 5.24 16.854 5.146ZM12 1.707L15.293 5H14C12.617 5 12 4.383 12 3V1.707ZM12 17.1C12 18.432 11.4321 19 10.1001 19H2.90088C1.56888 19 1.00098 18.432 1.00098 17.1V6.89999C1.00098 5.56799 1.56888 5 2.90088 5H4.00098V13.1C4.00098 14.97 5.03088 16 6.90088 16H12.001V17.1H12ZM14.1001 15H6.90088C5.56888 15 5.00098 14.432 5.00098 13.1V2.89999C5.00098 1.56799 5.56888 1 6.90088 1H11.001V3C11.001 4.935 12.066 6 14.001 6H16.001V13.1C16 14.432 15.4321 15 14.1001 15Z" fill="black" fill-opacity="0.8"/>
</svg>
