<svg width="26" height="22" viewBox="0 0 26 22" fill="none" xmlns="http://www.w3.org/2000/svg">
<path d="M24.0796 2.26096C22.7301 0.791927 20.7825 0.00977725 18.4475 0C18.4379 0 18.427 0 18.4174 0C15.706 0 13.9335 1.51184 13 2.85988C12.0666 1.51184 10.2941 0 7.58272 0C7.57177 0 7.56086 0 7.55265 0C5.22038 0.00977725 3.27404 0.791973 1.92313 2.26223C0.238264 4.09668 -0.391344 6.93448 0.240996 9.85177C1.89575 17.467 12.276 21.7654 12.7167 21.945C12.8057 21.9817 12.9042 22 13 22C13.0959 22 13.1944 21.9817 13.2834 21.945C13.7241 21.7654 24.1044 17.4682 25.7578 9.85177C26.3915 6.93204 25.7645 4.09541 24.0796 2.26096ZM24.4123 9.61836C23.0395 15.9467 14.6562 19.97 12.9987 20.7082C11.3412 19.97 2.95797 15.9467 1.5838 9.61836C1.02674 7.05428 1.54824 4.59407 2.9799 3.03704C4.07897 1.84055 5.61875 1.23071 7.55683 1.22216C7.56641 1.22216 7.57448 1.22216 7.58406 1.22216C11.0825 1.22216 12.3006 4.32518 12.3513 4.45717C12.5388 4.95336 13.4613 4.95336 13.6475 4.45717C13.6981 4.32518 14.9177 1.22216 18.4147 1.22216C18.4243 1.22216 18.4325 1.22216 18.4421 1.22216C20.3829 1.23071 21.924 1.84055 23.0217 3.03704C24.4506 4.59162 24.9707 7.05306 24.4123 9.61836Z" fill="black"/>
</svg>
