<svg width="16" height="16" viewBox="0 0 16 16" fill="none" xmlns="http://www.w3.org/2000/svg">
<path d="M8 1.44112C10.136 1.44112 10.3893 1.44945 11.2327 1.48812C12.0127 1.52412 12.4353 1.65345 12.7153 1.76145C13.0913 1.90412 13.358 2.08145 13.638 2.36145C13.918 2.64145 14.0953 2.90812 14.238 3.28412C14.346 3.56412 14.4753 3.98679 14.5113 4.76679C14.55 5.61012 14.5583 5.86345 14.5583 8.00012C14.5583 10.1368 14.55 10.3901 14.5113 11.2334C14.4753 12.0134 14.346 12.4361 14.238 12.7161C14.0953 13.0921 13.918 13.3588 13.638 13.6388C13.358 13.9188 13.0913 14.0961 12.7153 14.2388C12.4353 14.3468 12.0127 14.4761 11.2327 14.5121C10.3893 14.5508 10.136 14.5591 8 14.5591C5.864 14.5591 5.61067 14.5508 4.76733 14.5121C3.98733 14.4761 3.56467 14.3468 3.28467 14.2388C2.90867 14.0961 2.642 13.9188 2.362 13.6388C2.082 13.3588 1.90467 13.0921 1.762 12.7161C1.654 12.4361 1.52467 12.0134 1.48867 11.2334C1.45 10.3901 1.44167 10.1368 1.44167 8.00012C1.44167 5.86345 1.45 5.61012 1.48867 4.76679C1.52467 3.98679 1.654 3.56412 1.762 3.28412C1.90467 2.90812 2.082 2.64145 2.362 2.36145C2.642 2.08145 2.90867 1.90412 3.28467 1.76145C3.56467 1.65345 3.98733 1.52412 4.76733 1.48812C5.61067 1.44945 5.864 1.44112 8 1.44112ZM8 0C5.82733 0 5.55533 0.00833333 4.70267 0.0470002C3.85067 0.0856668 3.26867 0.221667 2.76267 0.419C2.23933 0.623333 1.79467 0.896667 1.35133 1.34C0.907333 1.78333 0.634 2.228 0.429667 2.75133C0.232 3.25667 0.0960002 3.83933 0.0573335 4.69133C0.0186668 5.544 0.0103333 5.816 0.0103333 8C0.0103333 10.184 0.0186668 10.456 0.0573335 11.3087C0.0960002 12.1613 0.232 12.7427 0.429667 13.2487C0.634 13.772 0.907333 14.2167 1.35133 14.66C1.79467 15.1033 2.23933 15.3767 2.76267 15.581C3.26867 15.7783 3.85067 15.9143 4.70267 15.953C5.55533 15.9917 5.82733 16 8 16C10.1727 16 10.4447 15.9917 11.2973 15.953C12.1493 15.9143 12.7313 15.7783 13.2373 15.581C13.7607 15.3767 14.2053 15.1033 14.6487 14.66C15.092 14.2167 15.366 13.772 15.5703 13.2487C15.768 12.7427 15.904 12.1613 15.9427 11.3087C15.9813 10.456 15.9897 10.184 15.9897 8C15.9897 5.816 15.9813 5.544 15.9427 4.69133C15.904 3.83933 15.768 3.25733 15.5703 2.75133C15.366 2.228 15.092 1.78333 14.6487 1.34C14.2053 0.896667 13.7607 0.623333 13.2373 0.419C12.7313 0.221667 12.1493 0.0856668 11.2973 0.0470002C10.4447 0.00833333 10.1727 0 8 0Z" fill="white"/>
<path d="M8 3.89233C5.73133 3.89233 3.89233 5.73133 3.89233 8C3.89233 10.2687 5.73133 12.1077 8 12.1077C10.2687 12.1077 12.1077 10.2687 12.1077 8C12.1077 5.73133 10.2687 3.89233 8 3.89233ZM8 10.6663C6.528 10.6663 5.33333 9.472 5.33333 8C5.33333 6.528 6.528 5.33333 8 5.33333C9.472 5.33333 10.6667 6.528 10.6667 8C10.6667 9.472 9.472 10.6663 8 10.6663Z" fill="white"/>
<path d="M12.2707 4.68C12.802 4.68 13.2327 4.24933 13.2327 3.718C13.2327 3.18667 12.802 2.756 12.2707 2.756C11.7393 2.756 11.3087 3.18667 11.3087 3.718C11.3087 4.24933 11.7393 4.68 12.2707 4.68Z" fill="white"/>
</svg>
