<svg width="26" height="26" viewBox="0 0 26 26" fill="none" xmlns="http://www.w3.org/2000/svg">
<path d="M10 24.6667C10 25.4027 9.40667 26 8.67334 26C7.94267 26 7.33333 25.4027 7.33333 24.6667C7.33333 23.9307 7.91331 23.3333 8.64665 23.3333H8.67334C9.40667 23.3333 10 23.9307 10 24.6667ZM19.34 23.3333H19.3133C18.58 23.3333 18 23.9307 18 24.6667C18 25.4027 18.6093 26 19.34 26C20.0733 26 20.6667 25.4027 20.6667 24.6667C20.6667 23.9307 20.0733 23.3333 19.34 23.3333ZM25.2786 7.92934L23.9253 16.156C23.58 18.0613 22.7653 19.9987 19.3333 19.9987H8.31201C6.66401 19.9987 5.24538 18.768 5.01204 17.1373L2.9987 3.05066C2.86003 2.07199 2.00802 1.33333 1.02002 1.33333H0.666667C0.298667 1.33333 0 1.03467 0 0.666667C0 0.298667 0.298667 0 0.666667 0H1.02132C2.66932 0 4.08796 1.23066 4.32129 2.86133L4.48405 4H22C22.992 4 23.9241 4.43599 24.5601 5.19733C25.1947 5.95866 25.456 6.95468 25.2786 7.92934ZM22.82 14.6667H14C13.632 14.6667 13.3333 14.368 13.3333 14C13.3333 13.632 13.632 13.3333 14 13.3333H23.0387L23.964 7.70133C24.072 7.10533 23.9147 6.508 23.5347 6.052C23.1533 5.59467 22.5934 5.33333 21.9987 5.33333H4.67334L6.33333 16.9493C6.472 17.928 7.32401 18.6667 8.31201 18.6667H19.3333C21.672 18.6667 22.2906 17.704 22.612 15.9293L22.82 14.6667Z" fill="black"/>
</svg>
