<svg width="38" height="39" viewBox="0 0 38 39" fill="none" xmlns="http://www.w3.org/2000/svg">
<path d="M15 37C15 38.104 14.11 39 13.01 39C11.914 39 11 38.104 11 37C11 35.896 11.87 35 12.97 35H13.01C14.11 35 15 35.896 15 37ZM29.01 35H28.97C27.87 35 27 35.896 27 37C27 38.104 27.914 39 29.01 39C30.11 39 31 38.104 31 37C31 35.896 30.11 35 29.01 35ZM37.918 11.894L35.8879 24.234C35.3699 27.092 34.148 29.998 29 29.998H12.468C9.99602 29.998 7.86807 28.152 7.51807 25.706L4.49805 4.57599C4.29005 3.10799 3.01203 2 1.53003 2H1C0.448 2 0 1.552 0 1C0 0.448 0.448 0 1 0H1.53198C4.00398 0 6.13193 1.84599 6.48193 4.29199L6.72607 6H33C34.488 6 35.8861 6.65399 36.8401 7.79599C37.7921 8.93799 38.184 10.432 37.918 11.894ZM35.302 9.078C34.73 8.392 33.89 8 32.998 8H7.01001L9.5 25.424C9.708 26.892 10.986 28 12.468 28H29C32.508 28 33.436 26.556 33.918 23.894L35.948 11.552C36.11 10.658 35.874 9.764 35.302 9.078ZM26 17H23V14C23 13.448 22.552 13 22 13C21.448 13 21 13.448 21 14V17H18C17.448 17 17 17.448 17 18C17 18.552 17.448 19 18 19H21V22C21 22.552 21.448 23 22 23C22.552 23 23 22.552 23 22V19H26C26.552 19 27 18.552 27 18C27 17.448 26.552 17 26 17Z" fill="black"/>
</svg>
