<svg width="40" height="40" viewBox="0 0 40 40" fill="none" xmlns="http://www.w3.org/2000/svg">
<circle cx="20" cy="20" r="20" fill="white" fill-opacity="0.3"/>
<path d="M25.4 14.3C24.6 13.5 24.2 12.4 24.2 11.2H21.8V23.2C21.8 24.8 20.5 26.1 18.9 26.1C17.3 26.1 16 24.8 16 23.2C16 21.6 17.3 20.3 18.9 20.3C19.2 20.3 19.5 20.4 19.7 20.5V18.1C19.5 18.1 19.2 18 18.9 18C15.9 18 13.6 20.3 13.6 23.2C13.6 26.1 15.9 28.4 18.9 28.4C21.9 28.4 24.2 26.1 24.2 23.2V16.9C25.5 17.8 27 18.3 28.6 18.3V15.9C27.4 15.9 26.2 15.4 25.4 14.3Z" fill="white"/>
</svg>
