<svg width="19" height="19" viewBox="0 0 19 19" fill="none" xmlns="http://www.w3.org/2000/svg">
<path d="M18.5 3H14.941C13.86 3 13.774 2.74201 13.518 1.97501L13.315 1.368C13.043 0.549996 12.28 0 11.418 0H7.58C6.718 0 5.955 0.549996 5.683 1.368L5.481 1.97501C5.225 2.74201 5.139 3 4.058 3H0.5C0.224 3 0 3.224 0 3.5C0 3.776 0.224 4 0.5 4H2.032L2.814 15.732C2.953 17.809 4.225 19 6.306 19H12.693C14.774 19 16.047 17.809 16.185 15.732L16.967 4H18.5C18.776 4 19 3.776 19 3.5C19 3.224 18.776 3 18.5 3ZM6.632 1.68401C6.769 1.27501 7.14999 1 7.58099 1H11.419C11.85 1 12.231 1.27401 12.367 1.68401L12.57 2.291C12.651 2.533 12.737 2.775 12.855 3H6.146C6.264 2.774 6.35 2.533 6.431 2.291L6.632 1.68401ZM15.188 15.666C15.085 17.215 14.246 18 12.694 18H6.30701C4.75501 18 3.916 17.215 3.813 15.666L3.035 4H4.059C4.183 4 4.284 3.986 4.394 3.979C4.429 3.987 4.463 4 4.5 4H14.5C14.538 4 14.571 3.986 14.606 3.979C14.716 3.987 14.817 4 14.941 4H15.965L15.188 15.666ZM12 8.5V13.5C12 13.776 11.776 14 11.5 14C11.224 14 11 13.776 11 13.5V8.5C11 8.224 11.224 8 11.5 8C11.776 8 12 8.224 12 8.5ZM8 8.5V13.5C8 13.776 7.776 14 7.5 14C7.224 14 7 13.776 7 13.5V8.5C7 8.224 7.224 8 7.5 8C7.776 8 8 8.224 8 8.5Z" fill="black" fill-opacity="0.8"/>
</svg>
