<svg width="40" height="40" viewBox="0 0 40 40" fill="none" xmlns="http://www.w3.org/2000/svg">
<g clip-path="url(#clip0)">
<path d="M28.3333 26.6667C28.3333 28.5 26.8333 30 25 30C23.1667 30 21.6667 28.5 21.6667 26.6667C21.6667 24.8333 23.1667 23.3333 25 23.3333C26.8333 23.3333 28.3333 24.8333 28.3333 26.6667Z" stroke="black" stroke-width="2" stroke-linecap="round" stroke-linejoin="round"/>
<path d="M13.3333 26.6667C13.3333 28.5 11.8333 30 10 30C8.16667 30 6.66667 28.5 6.66667 26.6667C6.66667 24.8333 8.16667 23.3333 10 23.3333C11.8333 23.3333 13.3333 24.8333 13.3333 26.6667Z" stroke="black" stroke-width="2" stroke-linecap="round" stroke-linejoin="round"/>
<path d="M21.6667 26.6667H13.3333M6.66667 26.6667H5C4.08333 26.6667 3.33333 25.9167 3.33333 25V16.6667M3.33333 16.6667V10C3.33333 9.08333 4.08333 8.33333 5 8.33333H20C20.9167 8.33333 21.6667 9.08333 21.6667 10V26.6667M3.33333 16.6667H21.6667M28.3333 26.6667H30C30.9167 26.6667 31.6667 25.9167 31.6667 25V20M31.6667 20H21.6667V13.3333H28.3333L31.6667 20Z" stroke="black" stroke-width="2" stroke-linecap="round" stroke-linejoin="round"/>
</g>
<defs>
<clipPath id="clip0">
<rect width="40" height="40" fill="white"/>
</clipPath>
</defs>
</svg>
