<svg width="20" height="26" viewBox="0 0 20 26" fill="none" xmlns="http://www.w3.org/2000/svg">
<path d="M10.012 10.6667C12.9534 10.6667 15.3454 8.27467 15.3454 5.33333C15.3454 2.392 12.9534 0 10.012 0C7.07071 0 4.67871 2.392 4.67871 5.33333C4.67871 8.27467 7.07071 10.6667 10.012 10.6667ZM10.012 1.33333C12.2174 1.33333 14.012 3.128 14.012 5.33333C14.012 7.53867 12.2174 9.33333 10.012 9.33333C7.80671 9.33333 6.01204 7.53867 6.01204 5.33333C6.01204 3.128 7.80538 1.33333 10.012 1.33333ZM12.6667 13.3333H7.33333C1.92 13.3333 0 17.2974 0 20.6921C0 23.7281 1.61474 25.3333 4.67074 25.3333H15.3293C18.3853 25.3333 20 23.7281 20 20.6921C20 17.2974 18.08 13.3333 12.6667 13.3333ZM15.3293 24H4.67074C2.36274 24 1.33333 22.9801 1.33333 20.6921C1.33333 19.2787 1.76533 14.6667 7.33333 14.6667H12.6667C18.3773 14.6667 18.6667 19.6854 18.6667 20.6921C18.6667 22.9801 17.6386 24 15.3293 24Z" fill="black"/>
</svg>
