<svg width="38" height="39" viewBox="0 0 38 39" fill="none" xmlns="http://www.w3.org/2000/svg">
<path d="M15 37C15 38.104 14.11 39 13.01 39C11.914 39 11 38.104 11 37C11 35.896 11.87 35 12.97 35H13.01C14.11 35 15 35.896 15 37ZM29.01 35H28.97C27.87 35 27 35.896 27 37C27 38.104 27.914 39 29.01 39C30.11 39 31 38.104 31 37C31 35.896 30.11 35 29.01 35ZM37.918 11.894L35.8879 24.234C35.3699 27.092 34.148 29.998 29 29.998H12.468C9.99602 29.998 7.86807 28.152 7.51807 25.706L4.49805 4.57599C4.29005 3.10799 3.01203 2 1.53003 2H1C0.448 2 0 1.552 0 1C0 0.448 0.448 0 1 0H1.53198C4.00398 0 6.13193 1.84599 6.48193 4.29199L6.72607 6H33C34.488 6 35.8861 6.65399 36.8401 7.79599C37.7921 8.93799 38.184 10.432 37.918 11.894ZM35.302 9.078C34.73 8.392 33.89 8 32.998 8H7.01001L9.5 25.424C9.708 26.892 10.986 28 12.468 28H29C32.508 28 33.436 26.556 33.918 23.894L35.948 11.552C36.11 10.658 35.874 9.764 35.302 9.078Z" fill="black"/>
<path d="M25.3996 20.0021C24.6883 20.0021 24.0669 20.3767 23.7129 20.9361L19.2635 18.7114C19.3482 18.4901 19.3996 18.2527 19.3996 18.0014C19.3996 17.7507 19.3482 17.5127 19.2635 17.2914L23.7129 15.0667C24.0676 15.6267 24.6883 16.0007 25.3996 16.0007C26.5043 16.0007 27.3996 15.1054 27.3996 14.0007C27.3996 12.896 26.5043 12.0007 25.3996 12.0007C24.2949 12.0007 23.3996 12.896 23.3996 14.0007C23.3996 14.0347 23.4082 14.0667 23.4095 14.1001L18.6716 16.4687C18.3249 16.1807 17.8856 16.0001 17.3996 16.0001C16.2949 16.0001 15.3996 16.8954 15.3996 18.0001C15.3996 19.1047 16.2949 20.0001 17.3996 20.0001C17.8856 20.0001 18.3249 19.8201 18.6716 19.5314L23.4095 21.9C23.4082 21.9334 23.3996 21.9654 23.3996 21.9994C23.3996 23.1041 24.2949 23.9994 25.3996 23.9994C26.5043 23.9994 27.3996 23.1041 27.3996 21.9994C27.3996 20.8947 26.5043 20.0021 25.3996 20.0021Z" fill="black"/>
</svg>
