<svg width="85" height="48" viewBox="0 0 85 48" fill="none" xmlns="http://www.w3.org/2000/svg">
<path d="M25.7049 10.2783C24.9342 17.9018 24.1636 25.5251 23.3929 33.1486C21.5435 33.148 19.6942 33.1473 17.8448 33.1467L20.1539 10.2783H16.6609C15.7372 19.4244 14.8138 28.5707 13.8901 37.7168C18.0693 37.7166 22.2483 37.7162 26.4273 37.7158L29.1979 10.2783H25.7049Z" fill="black"/>
<path d="M6.26357 10.2783C6.60951 6.85232 6.95545 3.42631 7.30139 0.000297546H3.80837C2.53898 12.572 1.26939 25.1439 0 37.7158C1.16434 37.7162 2.32868 37.7164 3.49302 37.7168C4.26278 30.0937 5.03236 22.4708 5.80213 14.8477H11.3489C10.5794 22.4704 9.80959 30.0931 9.03982 37.7158H12.5328L15.3034 10.2783H12.704H6.26357Z" fill="black"/>
<path d="M75.4881 14.8479H81.0581C80.8316 17.0526 80.6043 19.2571 80.3778 21.4617H74.8688C75.0747 19.2571 75.282 17.0526 75.4881 14.8479ZM83.5843 24.2968L85 10.2782H72.5054C71.5817 19.4251 70.6581 28.5708 69.7346 37.7163H82.2137C82.4641 35.2485 82.7116 32.7796 82.962 30.3119H79.4684C79.3736 31.2574 79.2775 32.2014 79.1827 33.147H73.6893C73.9877 30.1974 74.2846 27.2464 74.5831 24.2968H83.5843Z" fill="black"/>
<path d="M37.2437 33.147H31.7364C32.3523 27.0472 32.9682 20.9475 33.5841 14.8479H39.0925L37.2437 33.147ZM40.6788 10.2786H34.0456C34.3915 6.8524 34.7376 3.42639 35.0836 0.000190735H31.5904C30.3208 12.5723 29.0514 25.1442 27.782 37.7163C31.9464 37.7163 36.1109 37.7161 40.2753 37.7161C41.199 28.5702 42.1224 19.4245 43.0459 10.2786H40.6788Z" fill="black"/>
<path d="M68.6117 10.2801L68.6118 10.2784H61.201L61.2008 10.2801H58.6362C58.0065 16.5197 57.3767 22.758 56.747 28.9963C58.1415 29.3464 59.3091 30.2669 59.9871 31.4954L61.668 14.8477H67.1954L65.3476 33.149H60.5567C60.5992 33.4152 60.6222 33.6881 60.6222 33.9664C60.6222 35.4482 59.9921 36.7825 58.9856 37.7182L64.8935 37.7197C64.6982 39.6248 64.5047 41.5284 64.3094 43.4322H58.7432L59.0302 40.5971H55.5699C55.321 43.0647 55.0722 45.5324 54.8218 48H67.3404C68.6105 35.4271 69.8807 22.8543 71.1493 10.2801H68.6117Z" fill="black"/>
<path d="M59.1578 33.9662C59.1578 35.9883 57.5174 37.6274 55.4938 37.6274C53.4702 37.6274 51.8296 35.9883 51.8296 33.9662C51.8296 31.9442 53.4702 30.305 55.4938 30.305C57.5174 30.305 59.1578 31.9442 59.1578 33.9662Z" fill="black"/>
<path d="M51.418 30.3102C51.3963 30.5209 51.3751 30.7309 51.3543 30.9414C52.1881 29.8041 53.4792 29.023 54.9574 28.8694C54.9091 27.9814 54.7032 26.9019 54.1209 25.8187C54.0248 25.6393 53.6245 24.9142 52.8479 24.1213C50.6782 21.9081 48.8423 22.5229 47.7745 20.793C47.0602 19.6355 47.0617 18.3266 47.1748 17.401C47.2612 16.5504 47.3465 15.6994 47.4328 14.8476H52.9801C52.895 15.6958 52.8099 16.5447 52.7235 17.3925H52.7307L52.6986 17.7205H56.1869L56.3014 16.572C56.5128 14.4744 56.7243 12.3768 56.9369 10.2779H56.9355C56.1734 10.2779 55.4108 10.2785 54.6483 10.2788V10.2783H47.2375L47.2373 10.2802C46.2908 10.2806 45.3446 10.2807 44.3983 10.2807L43.6799 17.401C43.4536 19.9874 44.1297 21.4487 44.7718 22.301C46.4846 24.5721 49.2667 24.2373 50.7263 26.6031C51.5255 27.8977 51.524 29.345 51.418 30.3102Z" fill="black"/>
<path d="M50.365 33.9665C50.365 33.6869 50.3882 33.413 50.4313 33.1455H45.5766C45.6714 32.2002 45.7675 31.256 45.8623 30.3104H42.3759C42.1269 32.7795 41.878 35.2473 41.6292 37.7148H51.998C50.9938 36.7794 50.365 35.4466 50.365 33.9665Z" fill="black"/>
</svg>
